<svg xmlns="http://www.w3.org/2000/svg" xmlns:xlink="http://www.w3.org/1999/xlink" class="highcharts-root" font-family="Roboto" font-size="12" viewBox="0 0 1000 600"><defs><path id="a" fill="none" d="M68 47h922v463H68z" class="highcharts-plot-background"/></defs><defs><clipPath id="b"><path fill="none" d="M0 0h922v463H0z"/></clipPath></defs><rect width="1000" height="600" fill="#fff" class="highcharts-background" rx="0" ry="0"/><use xlink:href="#a" class="highcharts-plot-background"/><g class="highcharts-grid highcharts-xaxis-grid" data-z-index="1"><path fill="none" d="M989.5 47v463M67.5 47v463" class="highcharts-grid-line" data-z-index="1"/></g><g class="highcharts-grid highcharts-yaxis-grid" data-z-index="1"><path fill="none" stroke="#e6e6e6" d="M68 510.5h922m-922-58h922m-922-58h922m-922-58h922m-922-57h922m-922-58h922m-922-58h922m-922-58h922m-922-59h922" class="highcharts-grid-line" data-z-index="1"/></g><use xlink:href="#a" class="highcharts-plot-border" data-z-index="1"/><g class="highcharts-axis highcharts-xaxis" data-z-index="2"><path fill="none" stroke="#ccd6eb" d="M68 510.5h922" class="highcharts-axis-line" data-z-index="7"/></g><g class="highcharts-axis highcharts-yaxis" data-z-index="2"><text x="24.63333321" y="278.5" fill="#666" class="highcharts-axis-title" color="#666" data-z-index="7" text-anchor="middle" transform="rotate(-90 24.6333332 278.5)">Value</text><path fill="none" d="M68 47v463" class="highcharts-axis-line" data-z-index="7"/></g><g class="highcharts-series-group" data-z-index="3"><g class="highcharts-series highcharts-series-0 highcharts-column-series" clip-path="url(#b)" data-z-index=".1" transform="translate(68 47)"><path d="M197 63h37v401h-37z" class="highcharts-point"/></g><g class="highcharts-series highcharts-series-1 highcharts-column-series" clip-path="url(#b)" data-z-index=".1" transform="translate(68 47)"><path fill="#dea584" d="M258 66h37v398h-37z" class="highcharts-point"/></g><g class="highcharts-series highcharts-series-2 highcharts-column-series" clip-path="url(#b)" data-z-index=".1" transform="translate(68 47)"><path fill="#009639" d="M320 178h37v286h-37z" class="highcharts-point"/></g><g class="highcharts-series highcharts-series-3 highcharts-column-series" clip-path="url(#b)" data-z-index=".1" transform="translate(68 47)"><path fill="#a00" d="M381 300h37v164h-37z" class="highcharts-point"/></g><g class="highcharts-series highcharts-series-4 highcharts-column-series" clip-path="url(#b)" data-z-index=".1" transform="translate(68 47)"><path fill="#ffc200" d="M443 359h37v105h-37z" class="highcharts-point"/></g><g class="highcharts-series highcharts-series-5 highcharts-column-series" clip-path="url(#b)" data-z-index=".1" transform="translate(68 47)"><path fill="#f1e05a" d="M504 410h37v54h-37z" class="highcharts-point"/></g><g class="highcharts-series highcharts-series-6 highcharts-column-series" clip-path="url(#b)" data-z-index=".1" transform="translate(68 47)"><path fill="#00b4ab" d="M565 436h37v28h-37z" class="highcharts-point"/></g><g class="highcharts-series highcharts-series-7 highcharts-column-series" clip-path="url(#b)" data-z-index=".1" transform="translate(68 47)"><path fill="#f1e05a" d="M627 441h37v23h-37z" class="highcharts-point"/></g><g class="highcharts-series highcharts-series-8 highcharts-column-series" clip-path="url(#b)" data-z-index=".1" transform="translate(68 47)"><path fill="#701516" d="M688 449h37v15h-37z" class="highcharts-point"/></g></g><text x="500" y="24" fill="#333" class="highcharts-title" color="#333" data-z-index="4" font-size="18" text-anchor="middle">Benchmarks</text><g class="highcharts-data-labels highcharts-series-0 highcharts-column-series" data-z-index="6"><text x="5" y="16" class="highcharts-label highcharts-data-label highcharts-data-label-color-undefined" color="#000" cursor="pointer" data-z-index="1" font-size="11" font-weight="700" transform="translate(261 86)">69 247</text></g><g class="highcharts-data-labels highcharts-series-1 highcharts-column-series" data-z-index="6"><text x="5" y="16" class="highcharts-label highcharts-data-label highcharts-data-label-color-undefined" color="#000" cursor="pointer" data-z-index="1" font-size="11" font-weight="700" transform="translate(322 89)">68 707</text></g><g class="highcharts-data-labels highcharts-series-2 highcharts-column-series" data-z-index="6"><text x="5" y="16" class="highcharts-label highcharts-data-label highcharts-data-label-color-undefined" color="#000" cursor="pointer" data-z-index="1" font-size="11" font-weight="700" transform="translate(384 201)">49 369</text></g><g class="highcharts-data-labels highcharts-series-3 highcharts-column-series" data-z-index="6"><text x="5" y="16" class="highcharts-label highcharts-data-label highcharts-data-label-color-undefined" color="#000" cursor="pointer" data-z-index="1" font-size="11" font-weight="700" transform="translate(445 323)">28 352</text></g><g class="highcharts-data-labels highcharts-series-4 highcharts-column-series" data-z-index="6"><text x="5" y="16" class="highcharts-label highcharts-data-label highcharts-data-label-color-undefined" color="#000" cursor="pointer" data-z-index="1" font-size="11" font-weight="700" transform="translate(507 382)">18 059</text></g><g class="highcharts-data-labels highcharts-series-5 highcharts-column-series" data-z-index="6"><text x="5" y="16" class="highcharts-label highcharts-data-label highcharts-data-label-color-undefined" color="#000" cursor="pointer" data-z-index="1" font-size="11" font-weight="700" transform="translate(571 433)">9 323</text></g><g class="highcharts-data-labels highcharts-series-6 highcharts-column-series" data-z-index="6"><text x="5" y="16" class="highcharts-label highcharts-data-label highcharts-data-label-color-undefined" color="#000" cursor="pointer" data-z-index="1" font-size="11" font-weight="700" transform="translate(632 459)">4 765</text></g><g class="highcharts-data-labels highcharts-series-7 highcharts-column-series" data-z-index="6"><text x="5" y="16" class="highcharts-label highcharts-data-label highcharts-data-label-color-undefined" color="#000" cursor="pointer" data-z-index="1" font-size="11" font-weight="700" transform="translate(694 464)">3 897</text></g><g class="highcharts-data-labels highcharts-series-8 highcharts-column-series" data-z-index="6"><text x="5" y="16" class="highcharts-label highcharts-data-label highcharts-data-label-color-undefined" color="#000" cursor="pointer" data-z-index="1" font-size="11" font-weight="700" transform="translate(755 472)">2 514</text></g><g class="highcharts-legend" data-z-index="7" transform="translate(41 544)"><rect width="917" height="41" fill="none" class="highcharts-legend-box" rx="0" ry="0"/><g data-z-index="1"><g class="highcharts-legend-item highcharts-column-series highcharts-color-undefined highcharts-series-0" data-z-index="1" transform="translate(8 3)"><text x="21" y="15" fill="#333" color="#333" cursor="pointer" data-z-index="2" font-weight="700">sabo-tabby (Crystal)</text><rect width="12" height="12" x="2" y="4" class="highcharts-point" data-z-index="3" rx="6" ry="6"/></g><g class="highcharts-legend-item highcharts-column-series highcharts-color-undefined highcharts-series-1" data-z-index="1" transform="translate(161.59999847 3)"><text x="21" y="15" fill="#333" color="#333" cursor="pointer" data-z-index="2" font-weight="700">warp (Rust)</text><rect width="12" height="12" x="2" y="4" fill="#dea584" class="highcharts-point" data-z-index="3" rx="6" ry="6"/></g><g class="highcharts-legend-item highcharts-column-series highcharts-color-undefined highcharts-series-2" data-z-index="1" transform="translate(315.19999695 3)"><text x="21" y="15" fill="#333" color="#333" cursor="pointer" data-z-index="2" font-weight="700">NGINX (C)</text><rect width="12" height="12" x="2" y="4" fill="#009639" class="highcharts-point" data-z-index="3" rx="6" ry="6"/></g><g class="highcharts-legend-item highcharts-column-series highcharts-color-undefined highcharts-series-3" data-z-index="1" transform="translate(468.79999542 3)"><text x="21" y="15" fill="#333" color="#333" cursor="pointer" data-z-index="2" font-weight="700">Apache httpd (C)</text><rect width="12" height="12" x="2" y="4" fill="#a00" class="highcharts-point" data-z-index="3" rx="6" ry="6"/></g><g class="highcharts-legend-item highcharts-column-series highcharts-color-undefined highcharts-series-4" data-z-index="1" transform="translate(622.3999939 3)"><text x="21" y="15" fill="#333" color="#333" cursor="pointer" data-z-index="2" font-weight="700">Jester (Nim)</text><rect width="12" height="12" x="2" y="4" fill="#ffc200" class="highcharts-point" data-z-index="3" rx="6" ry="6"/></g><g class="highcharts-legend-item highcharts-column-series highcharts-color-undefined highcharts-series-5" data-z-index="1" transform="translate(775.99999237 3)"><text x="21" y="15" fill="#333" color="#333" cursor="pointer" data-z-index="2" font-weight="700">Polka (JS)</text><rect width="12" height="12" x="2" y="4" fill="#f1e05a" class="highcharts-point" data-z-index="3" rx="6" ry="6"/></g><g class="highcharts-legend-item highcharts-column-series highcharts-color-undefined highcharts-series-6" data-z-index="1" transform="translate(8 18)"><text x="21" y="15" fill="#333" color="#333" cursor="pointer" data-z-index="2" font-weight="700">Jaguar (Dart)</text><rect width="12" height="12" x="2" y="4" fill="#00b4ab" class="highcharts-point" data-z-index="3" rx="6" ry="6"/></g><g class="highcharts-legend-item highcharts-column-series highcharts-color-undefined highcharts-series-7" data-z-index="1" transform="translate(161.59999847 18)"><text x="21" y="15" fill="#333" color="#333" cursor="pointer" data-z-index="2" font-weight="700">Express (JS)</text><rect width="12" height="12" x="2" y="4" fill="#f1e05a" class="highcharts-point" data-z-index="3" rx="6" ry="6"/></g><g class="highcharts-legend-item highcharts-column-series highcharts-color-undefined highcharts-series-8" data-z-index="1" transform="translate(315.19999695 18)"><text x="21" y="15" fill="#333" color="#333" cursor="pointer" data-z-index="2" font-weight="700">Sinatra (Ruby)</text><rect width="12" height="12" x="2" y="4" fill="#701516" class="highcharts-point" data-z-index="3" rx="6" ry="6"/></g></g></g><text x="529" y="529" fill="#666" class="highcharts-axis-labels highcharts-xaxis-labels" color="#666" cursor="default" data-z-index="7" font-size="11" text-anchor="middle">Requests Per Second</text><g fill="#666" class="highcharts-axis-labels highcharts-yaxis-labels" color="#666" cursor="default" data-z-index="7" font-size="11" text-anchor="end"><text x="53" y="514">0</text><text x="53" y="456">10k</text><text x="53" y="398">20k</text><text x="53" y="340">30k</text><text x="53" y="283">40k</text><text x="53" y="225">50k</text><text x="53" y="167">60k</text><text x="53" y="109">70k</text><text x="53" y="51">80k</text></g></svg>