<svg xmlns="http://www.w3.org/2000/svg" xml:space="preserve" width="200" height="200"><path fill-opacity=".1" d="M50 0a50 50 0 1 0 0 100A50 50 0 0 0 50 0Zm0 11a39 39 0 1 1 0 78 39 39 0 1 1 0-78zM24 23c-6 7-10 15-11 24v1c2 1 16 14 35 7 8-3 13 1 19 5l2 1-8 25 2-1 2-1 19-51h-2c-4-4-6-7-11-9-7-3-13 3-19 5-10 2-19 1-27-4l-1-2ZM13 49v2l2 5c4 10 16 14 25 12 5 0 6 1 9 2h1l-5 17a9 9 0 0 0 3 0l11-30-2-1c-5-2-9 1-14 2-13 2-21-1-30-9z" color="#000" font-family="Bitstream Vera Sans" font-weight="400" overflow="visible" style="line-height:normal;-inkscape-font-specification:'Bitstream Vera Sans';text-indent:0;text-align:start;text-decoration-line:none;text-transform:none;marker:none"/></svg>