<svg xmlns="http://www.w3.org/2000/svg" xml:space="preserve" id="Layer_1" width="512" height="512" x="0" y="0" version="1.1"><style id="style73" type="text/css">.st0{fill:none;stroke:#000;stroke-width:2.2677;stroke-linecap:round;stroke-miterlimit:10}</style><g id="g2963" transform="translate(-7 -7) scale(1.51659)"><g id="g2172" fill-opacity="1" stroke-width=".6" transform="translate(-585 233)"><path id="path460-6" fill="#5bcefa" d="M756-194A145 145 0 0 0 611-49 145 145 0 0 0 756 95 145 145 0 0 0 900-49a145 145 0 0 0-144-145Z"/><path id="path462-2" fill="#f5a9b8" d="M641-137a145 145 0 0 0-30 88 145 145 0 0 0 30 87h229a145 145 0 0 0 30-87 145 145 0 0 0-29-88z"/><path id="path464-6" fill="#fff" d="M614-78a145 145 0 0 0-3 29 145 145 0 0 0 3 29h283a145 145 0 0 0 3-29 145 145 0 0 0-3-29z"/></g><circle id="circle87" cx="170.8" cy="184" r="144.6" fill="none" stroke="#000" stroke-miterlimit="10" stroke-width="2.8"/><path id="path77" d="M100 121a68 68 0 0 1 6 38c4 0 6-2 7-3 3-5-2-12 2-17 2-1 3-1 3-3 1-3-2-6-1-8l3-3 1-6c0-4 3-3 4-7 3-5 0-9 2-10h6c3-1 2-6 5-10 3-3 5-2 10-6l6-7c2-3 5-4 6-5-2 3-2 5-1 6 2 2 5 0 6 0 5-3 5-6 8-6l5 1c3 0 3-2 7-3h5c-3 2-4 5-3 7 0 1 1 3 3 3 1 1 3 0 4-1l1 6h6l8 4 4 1v4c1 2 4 3 6 2v6c-1 4-2 6-1 8l4 3 1 8c1 4 1 8 4 9h4v-12l1-9-3-7c2-3 2-5 2-7l-2-10-1-5 3 3c1 1 3 2 4 1l2-5 1-7 3-6c1-3 0-7-1-8 2 0 3-1 5-3l4-4v-7l5 2 4 2c1 0 2-4 1-7l-2-3 4-3c3-2 4-5 4-7v-5h4s6 0 7-5v-4l5 3h8l6-4 2-6a25 25 0 0 0 19-5c0 1-2 5 1 8l5 3c-3 0-5 2-6 4v9c0 2 2 4 5 4l-7 5c-1 2-3 5-3 8l2 5c-6-1-10 1-11 4 0 3 2 6 3 6-2 0-6 1-7 4l1 6 1 7-5 5c-2 4-2 8-2 9-3-1-7 0-8 3s1 5 1 6c-4 0-7 2-8 3l-4 8-2 4c-1-2-3-2-5-2-2 1-2 4-2 5l3 4-3 7-3 5h-4v3c0 2-2 3-5 4l-6 3-1 5c-1 1-2 1-2 3l-2 6c-2 2-4 1-5 3l3 5v4l-3 3v7l5 5 1 2-1 3-3 3v4l-3 4v6l1 1c1 2-1 3-3 6l-2 5v7l-5-1v4l3 4 1 2-3 2c-3 3-3 9 0 10h3l-2 3 2 6 5 5 4 3-2 7-1 5c0 9-4 22-3 27l1 2 1 4-1 4v7l-1 7-3 1 2 4v5l-2-2h-2c-1 1-2 3-1 5 0-1 0-3-2-4h-2l-2 3-2-4-1-3h-3v4l1 6-6-8-1-3c0-1-2-7 1-11 4-5 13-2 15-7l1-4-1-6-1-8-1-7-1-4-1-8c0-3-2-2-3-5l-1-7-3-5-4-7-3-4h-1l-1 4c1 3 1 7 4 10l2 2c3 3 3 6 2 9l-2 4c-2 5-1 7-2 14s-4 13-2 15l1 2-1 3-5 4-3 2 1 4-1 5-2-1-1 2c-1 0-2-3-5-3l-3 1-1 2-3-3h-1l-2 3-2-4c-1-4 1-7 2-10s1-5 3-6l8-1 6-2v-2c0-3 1 1 1-7a167 167 0 0 0-3-30c-3-14-11-26-17-32v-4c-1-8-6-13-8-15l1-7-1-3h-3l-1 4v9l-1 9c-2 11-5 14-4 20l4 6-4 3v6l-1 16v12l1 9 3 6v3c-1 2 0 5 1 9l-5-3h-3v3l-4-1-4 1-1 4c-2 1-5 1-7-1-3-2-2-6-4-7s-5 1-5 2v8c-1-2-3-3-4-2h-2l-1 5c0-1 0-3-2-5h-2l-1 1c-1 2 1 4 1 5-1 0-3 0-5-2s-2-5-1-8c0-5 3-9 4-10l8-6h5v-27l-3-8v-6l-2-5-1-6v-5l-2-6v-2c0-3-2-4-3-7 0-2 2-3 1-7l-1-5-5-2-4-2c-3-2-2-4-4-5h-4c-2 1-2 3-2 5l-1 11c-1 1-3 9-7 10-3 1-4-3-10-3l-4-1v-11l3 4 2 1c2 0 4 0 5-2 2-1 2-4 1-6l3 1c1 0 2-1 3-5l3-6c1-1 1-5-1-6l-5 1-2 3-4 5h-7l-4 1-2 3-7 2-4-3-4-4-7-2c-5-1-6 0-8-2s-2-4-2-5c-1-2-1-3 1-8l2-10-3-7-3-5-1-9 1-15 4 4 1 4 5 8c1 0 4 2 5 1l3-4 4-4h5l2-3 3 1c2 1 4-1 4-1h4l3-1 3-6 2-6 2-1 3-8 5-8zm45 90-2 1-2 3-1 12v16c2 7 4 7 4 13l-2 10 2 11 2 12v9c0 2-1 4 1 5l2 1c2-1 2-4 2-5l-2-8c-1-2-1-3 1-18l1-14-2-9v-9c1-14 2-15 1-18-1-4-3-5-3-9l-2-3zm-89-30s-2 1-2 4c-1 2 0 4 1 4 1 2 2 3 4 3h5c3-1 3-4 3-5 1-3-2-5-2-5-2-2-5-2-5-2l-4 1zm24-1 2 3 4-2 2-2 2-1 4-3 3-2 3-1v-5c-2-2-5-2-7-1-1 0-4 0-6 2l-2 3-4 4-2 4 1 1zm-7 12c-2 1-2 3-1 5l4 1 2-1 4-2c1-1 2-3 0-5h-4l-2 2h-4zm-1 9-6-1-2 4 4 4 4 2h3l3-3 1-2 2-1 3 2 5-1 4-2 2-4 3-3c1-1 2-3 1-5-1-3-4-4-5-4-1-1-4-1-6 1l-1 2-1 2-1 4c-1 2-4 3-6 4l-7 1zm17 25 1 2 4 1 4-1 1-2 2-5v-2l-1-1-2 1a34 34 0 0 1-9 7z"/><g id="g85"><path id="path79" d="M58 215a34 34 0 0 1-10 5" class="st0"/><path id="path81" d="m62 219-7 3-8 4" class="st0"/><path id="path83" d="m62 233 2-7c1-1 2-5 3-4h2l2 1v5" class="st0"/></g></g></svg>