<?xml version="1.0" standalone="no"?>
<!DOCTYPE svg PUBLIC "-//W3C//DTD SVG 20010904//EN"
 "http://www.w3.org/TR/2001/REC-SVG-20010904/DTD/svg10.dtd">
<svg version="1.0" xmlns="http://www.w3.org/2000/svg"
 width="700.000000pt" height="700.000000pt" viewBox="0 0 700.000000 700.000000"
 preserveAspectRatio="xMidYMid meet">
<metadata>
Created by potrace 1.14, written by Peter Selinger 2001-2017
</metadata>
<g transform="translate(0.000000,700.000000) scale(0.100000,-0.100000)"
fill="#000000" stroke="none">
<path d="M6376 6965 c-72 -40 -158 -60 -248 -59 l-67 1 -21 -63 c-20 -58 -26
-65 -84 -103 -59 -39 -66 -41 -140 -41 -69 0 -85 4 -132 31 l-54 30 0 -43 c0
-90 -59 -138 -170 -138 l-60 0 0 -67 c0 -92 -25 -140 -100 -195 -33 -24 -60
-47 -60 -53 0 -5 9 -23 20 -40 23 -35 27 -121 7 -149 -13 -17 -16 -17 -67 9
-29 15 -71 33 -92 41 l-38 13 0 -70 c0 -70 0 -71 -48 -120 l-47 -50 -170 85
c-197 98 -384 170 -575 220 -673 177 -1378 123 -2005 -154 -862 -381 -1499
-1142 -1720 -2055 -65 -268 -79 -395 -79 -715 0 -241 3 -306 21 -420 32 -203
69 -358 128 -535 151 -453 385 -834 725 -1175 166 -167 286 -266 481 -396 123
-82 388 -225 497 -267 32 -13 42 -22 42 -39 1 -50 59 -108 109 -108 18 0 22 4
16 18 -4 9 -10 29 -13 44 l-4 28 73 -26 c167 -57 413 -110 634 -135 129 -15
491 -15 620 0 164 19 389 60 478 87 15 5 17 -2 17 -44 0 -76 22 -132 85 -216
32 -42 60 -75 62 -72 2 2 0 30 -6 62 -6 32 -11 73 -11 91 0 31 2 33 35 33 21
0 35 -5 35 -12 0 -7 13 -40 28 -72 l28 -60 23 32 c25 35 60 42 81 17 11 -14
14 -13 24 7 14 28 57 35 76 14 7 -9 16 -16 21 -16 17 0 9 81 -11 120 -26 51
-25 54 9 66 28 11 29 14 40 115 7 57 13 113 14 124 2 14 32 36 112 78 387 207
771 550 1027 918 281 403 450 832 525 1334 22 152 25 628 5 775 -36 252 -101
514 -178 712 -90 234 -269 556 -411 741 -43 56 -44 59 -27 78 21 23 85 42 117
34 23 -6 24 -3 31 51 9 78 35 130 90 184 53 51 54 53 27 215 l-18 110 32 32
c18 18 47 34 67 38 l36 7 -24 35 c-31 47 -32 102 -1 131 32 30 71 42 138 42
32 0 59 2 59 5 0 2 -9 27 -20 56 -23 56 -21 67 17 151 22 48 37 65 95 104 l69
48 -28 14 c-62 32 -63 35 -63 162 0 115 0 117 29 144 15 15 41 30 57 35 l29 7
-57 36 c-63 41 -84 82 -72 142 3 20 2 35 -2 35 -5 -1 -36 -16 -68 -34z m-2726
-725 c315 -23 602 -87 880 -197 201 -80 414 -193 361 -193 -5 0 -3 -17 5 -37
21 -60 17 -90 -25 -182 -24 -53 -42 -109 -46 -146 -3 -33 -16 -86 -28 -117
-19 -50 -25 -58 -48 -58 -16 0 -44 15 -73 41 -42 37 -46 39 -41 18 24 -102 55
-279 55 -313 0 -23 -9 -59 -19 -80 l-20 -37 31 -72 31 -72 -12 -105 c-6 -58
-11 -156 -11 -217 l0 -113 -44 0 c-74 0 -94 39 -121 236 l-15 109 -45 39 c-51
43 -56 67 -30 152 8 27 15 75 15 107 l0 57 -39 0 c-58 0 -91 30 -91 85 0 43
-1 44 -42 56 -23 6 -77 28 -120 50 -66 33 -87 39 -142 39 -64 0 -64 0 -70 30
-3 17 -9 44 -12 60 -6 34 -7 34 -36 19 -32 -17 -96 5 -108 37 -21 55 -3 130
37 153 14 8 2 10 -46 11 -53 0 -72 -5 -117 -31 -51 -29 -57 -30 -105 -20 -83
18 -95 15 -150 -40 -79 -79 -161 -108 -201 -72 -22 19 -23 42 -4 87 l14 34
-34 -20 c-20 -11 -80 -71 -134 -133 -91 -104 -106 -116 -185 -155 -46 -23 -94
-53 -105 -67 -11 -14 -29 -58 -41 -97 -29 -98 -37 -105 -123 -108 l-71 -3 -5
-85 c-6 -92 -23 -134 -72 -187 -25 -26 -33 -46 -44 -113 -11 -69 -18 -87 -48
-120 l-35 -39 14 -48 c8 -26 15 -67 15 -90 0 -39 -4 -45 -40 -68 -55 -35 -59
-53 -49 -245 3 -71 1 -91 -14 -114 -20 -30 -87 -65 -125 -66 -20 0 -22 4 -16
23 4 12 7 87 6 167 -1 203 -42 399 -120 568 l-19 43 -50 -78 c-27 -43 -65
-118 -83 -166 -21 -55 -39 -88 -51 -92 -10 -4 -25 -27 -35 -58 -9 -29 -34 -86
-55 -128 -41 -82 -50 -89 -127 -89 -24 0 -57 -7 -74 -16 -26 -14 -37 -14 -76
-3 -44 12 -46 12 -66 -14 -19 -23 -29 -27 -72 -27 -49 0 -53 -2 -100 -53 -27
-29 -63 -70 -80 -92 l-31 -40 -48 20 c-41 17 -53 30 -96 100 -26 44 -52 98
-58 120 -6 26 -26 55 -54 84 l-45 43 -6 -128 c-4 -71 -8 -142 -9 -159 -1 -16
2 -70 7 -119 7 -72 14 -98 38 -137 16 -26 45 -84 64 -127 l34 -80 -20 -98
c-11 -53 -29 -125 -39 -160 -15 -46 -17 -71 -11 -96 5 -18 12 -46 15 -62 11
-50 52 -82 120 -90 33 -3 96 -16 140 -28 74 -20 86 -27 159 -95 44 -40 87 -73
96 -73 46 0 136 42 166 77 l31 37 108 5 109 6 60 81 c58 78 63 82 115 92 48
11 55 10 67 -6 30 -39 19 -78 -85 -292 -17 -35 -33 -41 -76 -27 -18 6 -20 3
-17 -38 5 -56 -26 -99 -80 -115 -47 -13 -69 -3 -120 53 l-37 42 -1 -112 c0
-61 3 -114 8 -117 4 -2 36 -9 72 -16 36 -6 92 -25 125 -41 33 -16 68 -29 77
-29 33 0 87 61 124 138 33 71 37 87 46 212 12 174 17 184 90 188 l56 3 24 -43
c25 -45 64 -72 173 -118 l60 -25 14 -74 c12 -66 12 -79 -2 -124 -16 -51 -16
-51 12 -101 16 -28 32 -73 36 -101 4 -27 15 -77 25 -110 10 -33 21 -103 23
-155 4 -69 12 -114 31 -164 18 -46 26 -88 26 -130 0 -44 8 -83 30 -139 l30
-78 0 -280 0 -279 -49 0 c-42 0 -56 -6 -117 -51 -38 -29 -82 -64 -97 -78 -39
-36 -77 -113 -84 -171 -7 -58 10 -61 -188 35 -576 280 -1051 746 -1340 1315
-117 231 -181 404 -244 660 -63 251 -76 373 -76 690 0 317 13 438 76 690 91
370 213 648 424 965 582 876 1616 1382 2665 1305z m2247 -1287 c231 -339 391
-727 468 -1133 60 -315 60 -770 0 -1080 -155 -802 -611 -1489 -1285 -1935
-118 -78 -268 -165 -284 -165 -4 0 -5 13 -1 29 4 18 -2 52 -16 92 -27 80 -26
131 6 317 13 81 29 194 34 252 6 58 22 148 37 199 l26 95 -29 20 c-15 11 -58
49 -94 83 -56 54 -69 73 -84 124 -17 57 -18 62 -2 89 23 38 22 40 -17 40 -44
0 -66 29 -66 88 0 54 19 91 66 129 34 27 36 31 24 54 -7 13 -26 40 -41 60 -21
27 -29 48 -29 79 0 35 3 41 18 36 9 -3 34 -8 55 -12 l37 -6 0 81 c0 87 22 151
74 220 27 36 34 75 16 86 -5 3 -10 36 -10 72 0 57 4 70 30 103 23 29 30 48 30
82 0 37 5 49 35 78 63 61 56 107 -29 190 l-46 44 0 76 c0 72 2 78 30 105 41
39 41 89 -1 161 -17 30 -28 58 -25 62 3 5 25 17 50 26 41 16 46 21 70 87 14
39 26 75 26 81 0 7 9 21 19 32 11 12 23 41 28 66 l8 45 105 52 c110 54 130 73
130 130 0 30 2 32 42 35 39 3 44 7 73 56 18 28 44 83 60 121 l28 70 -32 39
c-35 45 -37 58 -17 107 13 30 20 35 49 35 19 0 45 -9 58 -19 l24 -19 65 126
c36 69 76 134 90 144 14 10 49 24 78 30 28 7 52 16 52 20 0 17 10 5 67 -79z
m-3936 -1309 c14 -12 19 -31 19 -65 0 -43 -2 -48 -29 -57 -30 -10 -208 -128
-246 -162 -11 -10 -38 -27 -59 -37 l-39 -20 -32 41 -32 41 23 45 c12 25 41 63
64 85 23 22 50 55 62 73 24 39 64 62 110 63 18 0 42 4 53 9 28 13 84 4 106
-16z m-743 -298 c34 -18 68 -54 76 -82 11 -36 -11 -107 -39 -131 -20 -18 -38
-23 -78 -23 -64 1 -97 15 -132 58 -24 29 -27 39 -22 82 3 27 12 58 19 70 23
37 125 52 176 26z m643 -127 c44 -15 78 -46 95 -86 18 -42 6 -73 -49 -133 -24
-25 -49 -60 -56 -78 -27 -64 -178 -114 -235 -77 -27 18 -76 14 -76 -5 0 -6
-19 -31 -41 -55 -31 -34 -49 -45 -71 -45 -40 0 -105 35 -155 82 l-41 41 21 44
c17 35 26 43 42 39 62 -14 121 -17 185 -7 120 19 179 60 200 141 35 130 87
170 181 139z m-245 -84 c27 -41 6 -75 -72 -113 -59 -29 -69 -31 -105 -22 -46
13 -64 44 -49 85 8 21 16 25 48 25 28 0 45 7 62 25 33 35 93 35 116 0z m1864
-300 c9 -26 9 -53 1 -106 l-11 -71 34 -39 c79 -86 126 -195 126 -289 0 -56 2
-61 54 -122 165 -195 272 -425 316 -683 40 -235 58 -567 36 -686 l-8 -46 -72
-21 c-39 -12 -105 -26 -146 -32 -47 -7 -81 -17 -91 -28 -21 -22 -89 -228 -89
-270 0 -18 9 -51 21 -73 11 -23 18 -44 14 -47 -11 -11 -426 -6 -530 7 -156 19
-319 49 -445 82 -136 36 -146 41 -100 51 27 5 41 3 63 -13 l27 -20 0 76 c0 67
3 79 25 100 26 27 67 33 86 13 6 -7 21 -38 32 -68 29 -73 72 -102 141 -98 48
3 51 5 61 38 5 19 13 40 18 47 11 17 81 26 121 15 35 -10 36 -10 36 19 0 27 3
29 35 29 21 0 52 -11 75 -25 22 -14 44 -25 49 -25 5 0 3 24 -5 53 -10 34 -13
74 -9 117 6 61 4 70 -31 144 l-38 79 -4 215 c-3 118 1 313 8 433 l13 220 38
30 38 30 -46 69 c-44 67 -46 72 -40 122 4 29 23 107 42 173 40 135 65 312 65
460 0 55 5 117 11 138 8 32 14 37 39 37 24 0 30 -6 40 -35z m-526 -207 c4 -22
18 -62 31 -89 36 -69 39 -113 21 -288 -22 -209 -20 -312 5 -424 24 -106 21
-219 -12 -487 -24 -200 -24 -220 6 -332 45 -168 24 -246 -53 -192 -21 14 -22
22 -22 162 0 126 -6 180 -39 376 l-40 229 21 101 c25 123 21 170 -23 266 l-34
75 0 235 c0 129 4 270 8 313 8 69 12 81 44 115 l35 37 23 -29 c13 -16 26 -46
29 -68z m-956 -85 c2 -12 -11 -55 -28 -97 -29 -69 -35 -76 -68 -86 -46 -12
-48 -12 -94 0 -21 6 -42 19 -47 29 -9 15 -2 23 37 49 26 17 73 53 106 82 61
53 89 60 94 23z m2254 -640 c19 -27 66 -104 105 -173 63 -110 72 -133 78 -193
6 -56 12 -74 37 -103 26 -30 32 -46 44 -140 7 -58 18 -122 23 -142 14 -52 64
-419 64 -467 0 -22 -7 -56 -16 -76 -17 -42 -49 -57 -181 -84 -70 -15 -83 -22
-121 -60 -36 -38 -53 -47 -123 -64 -44 -12 -84 -21 -89 -21 -4 0 -8 33 -8 74
l0 74 51 38 c92 70 100 79 112 112 9 27 9 39 -3 62 -21 40 -19 83 10 202 14
57 29 157 35 224 10 122 21 167 60 244 25 48 30 123 11 159 -7 11 -36 49 -67
82 -39 44 -59 78 -71 118 -25 83 -22 181 6 181 5 0 25 -21 43 -47z m-493
-1547 l22 -24 -43 -4 c-24 -3 -44 -4 -46 -2 -5 4 29 54 37 54 4 0 18 -11 30
-24z m176 4 c6 -9 -104 -24 -112 -16 -3 3 9 12 26 19 32 14 77 12 86 -3z"/>
<path d="M1047 2630 c-26 -17 -71 -40 -100 -51 -63 -25 -79 -39 -67 -59 8 -13
16 -12 66 5 81 28 179 88 179 111 0 29 -26 27 -78 -6z"/>
<path d="M1060 2527 c-154 -70 -205 -99 -205 -117 0 -31 42 -20 179 45 78 36
148 70 156 74 8 5 15 17 15 27 0 31 -24 26 -145 -29z"/>
<path d="M1258 2503 c-40 -46 -103 -230 -87 -255 16 -26 42 7 64 82 27 90 52
140 70 140 36 0 45 -12 45 -60 0 -48 18 -78 40 -65 5 3 10 37 10 75 0 67 -1
70 -30 85 -39 20 -93 19 -112 -2z"/>
</g>
</svg>
